<?xml version="1.0" encoding="UTF-8"?>
<svg width="140px" height="47px" viewBox="0 0 140 47" version="1.1" xmlns="http://www.w3.org/2000/svg" xmlns:xlink="http://www.w3.org/1999/xlink">
    <g id="Symbols" stroke="none" stroke-width="1" fill="none" fill-rule="evenodd">
        <g id="logo-dark" fill-rule="nonzero">
            <path d="M124.069474,46.4136842 C123.741579,46.4136842 123.454211,46.0010526 123.358421,45.3931579 L119.442105,20.1968421 L115.824211,34.16 C115.706316,34.6168421 115.470526,34.9189474 115.205263,34.9521053 C114.94,34.9778947 114.689474,34.7384211 114.542105,34.3147368 L111.793684,26.3531579 L104.767895,26.3531579 C104.358947,26.3531579 104.023684,25.7121053 104.023684,24.92 C104.023684,24.1278947 104.355263,23.4868421 104.767895,23.4868421 L112.191579,23.4868421 C112.438421,23.4868421 112.670526,23.7263158 112.810526,24.1242105 L115.068947,30.6673684 L118.948421,15.6836842 C119.081053,15.1494737 119.372105,14.8326316 119.677895,14.8915789 C119.98,14.9431579 120.237895,15.3447368 120.326316,15.9047368 L123.925789,39.06 L127.794211,1.70947368 C127.853158,1.00578947 128.184737,0.504736842 128.553158,0.563684211 C128.921579,0.589473684 129.223684,1.13473684 129.264211,1.83842105 L130.631053,25.5868421 L132.646316,23.6415789 C132.749474,23.5421053 132.86,23.4905263 132.974211,23.4905263 L138.913158,23.4905263 C139.322105,23.4905263 139.657368,24.1315789 139.657368,24.9236842 C139.657368,25.7157895 139.325789,26.3568421 138.913158,26.3568421 L133.151053,26.3568421 L130.336316,29.0721053 C129.971579,29.4294737 129.522105,29.1457895 129.337895,28.4421053 C129.297368,28.2873684 129.271579,28.1215789 129.260526,27.9484211 L128.302632,11.3289474 L124.791579,45.2715789 C124.725263,45.9163158 124.437895,46.3878947 124.098947,46.4173684 L124.069474,46.4136842 L124.069474,46.4136842 Z" id="Path" fill="#446CCD"></path>
            <path d="M0.00736842105,0.467894737 L11.2442105,0.467894737 C13.8710526,0.467894737 15.9673684,1.10526316 17.5257895,2.38368421 C19.0842105,3.66210526 19.8652632,5.28315789 19.8652632,7.24684211 C19.8652632,10.1684211 18.1594737,12.1468421 14.7442105,13.1784211 C16.4868421,13.4252632 17.8757895,14.1473684 18.9073684,15.3521053 C19.9389474,16.5568421 20.4547368,17.9678947 20.4547368,19.5889474 C20.4547368,21.6521053 19.6994737,23.2915789 18.1889474,24.5073684 C16.6784211,25.7231579 14.5710526,26.3310526 11.8705263,26.3310526 L0.00736842105,26.3310526 L0.00736842105,0.467894737 Z M6.30736842,5.25736842 L6.30736842,10.8573684 L10.4336842,10.8573684 C11.3436842,10.8573684 12.0731579,10.6252632 12.6257895,10.1573684 C13.1784211,9.68947368 13.4547368,8.99684211 13.4547368,8.07578947 C13.4547368,7.15473684 13.1784211,6.45473684 12.6257895,5.97578947 C12.0731579,5.49684211 11.3436842,5.25736842 10.4336842,5.25736842 L6.30736842,5.25736842 L6.30736842,5.25736842 Z M6.30736842,21.5415789 L11.06,21.5415789 C11.9184211,21.5415789 12.6331579,21.2836842 13.1968421,20.7678947 C13.7605263,20.2521053 14.0442105,19.5410526 14.0442105,18.6310526 C14.0442105,17.7210526 13.7752632,16.9989474 13.2336842,16.4573684 C12.6921053,15.9157895 11.9921053,15.6468421 11.1336842,15.6468421 L6.30736842,15.6468421 L6.30736842,21.5415789 L6.30736842,21.5415789 Z" id="Shape" fill="#262626"></path>
            <path d="M27.1784211,22.8310526 C24.6105263,20.3257895 23.3284211,17.1573684 23.3284211,13.3257895 C23.3284211,9.49421053 24.6105263,6.33315789 27.1784211,3.83894737 C29.7463158,1.34473684 32.8889474,0.0994736842 36.61,0.0994736842 C40.3310526,0.0994736842 43.4626316,1.34473684 46.0047368,3.83894737 C48.5468421,6.33315789 49.8178947,9.49421053 49.8178947,13.3257895 C49.8178947,17.1573684 48.5394737,20.3257895 45.9863158,22.8310526 C43.4331579,25.3363158 40.3015789,26.5889474 36.5915789,26.5889474 C32.8852632,26.5889474 29.7463158,25.3363158 27.1784211,22.8310526 Z M41.5468421,18.7415789 C42.7884211,17.3894737 43.4073684,15.5842105 43.4073684,13.3257895 C43.4073684,11.0673684 42.7884211,9.26210526 41.5468421,7.91 C40.3052632,6.55789474 38.6473684,5.88368421 36.5731579,5.88368421 C34.4989474,5.88368421 32.8410526,6.55789474 31.5994737,7.91 C30.3578947,9.26210526 29.7389474,11.0673684 29.7389474,13.3257895 C29.7389474,15.5842105 30.3578947,17.3894737 31.5994737,18.7415789 C32.8410526,20.0936842 34.4989474,20.7678947 36.5731579,20.7678947 C38.6510526,20.7678947 40.3089474,20.09 41.5468421,18.7415789 Z" id="Shape" fill="#262626"></path>
            <polygon id="Path" fill="#262626" points="70.7073684 0.394210526 77.0073684 0.394210526 77.0073684 26.3310526 70.7073684 26.3310526 60.1705263 10.01 60.1705263 26.3310526 53.8705263 26.3310526 53.8705263 0.394210526 60.1705263 0.394210526 70.7073684 16.7152632"></polygon>
            <path d="M98.9652632,26.3310526 L97.5284211,21.9836842 L88.2442105,21.9836842 L86.8073684,26.3310526 L80.1021053,26.3310526 L89.0915789,0.394210526 L96.7547368,0.394210526 L105.707368,26.3310526 L98.9652632,26.3310526 Z M89.8284211,17.1942105 L95.9442105,17.1942105 L92.8863158,7.98368421 L89.8284211,17.1942105 Z" id="Shape" fill="#262626"></path>
        </g>
    </g>
</svg>